<svg width="26" height="28" viewBox="0 0 26 28" fill="none" xmlns="http://www.w3.org/2000/svg">
<path d="M3.31593 19.8445L3.35965 24.11L7.25314 24.07L18.6074 11.3721L14.6702 7.1466L3.31593 19.8445ZM21.5845 8.04266C21.6797 7.93644 21.7548 7.81066 21.8055 7.67253C21.8562 7.53439 21.8815 7.38661 21.8799 7.23764C21.8784 7.08867 21.8501 6.94144 21.7966 6.80437C21.7431 6.6673 21.6654 6.54309 21.5681 6.43885L19.1113 3.80212C19.0141 3.69766 18.8992 3.61517 18.773 3.55938C18.6468 3.50359 18.5119 3.47559 18.3759 3.47698C18.2399 3.47837 18.1056 3.50913 17.9805 3.5675C17.8555 3.62587 17.7423 3.71069 17.6473 3.81712L15.7686 5.91814L19.7058 10.1437L21.5845 8.04266Z" fill="white"/>
</svg>
